<svg width="100" height="100" viewBox="0 0 66 66" fill="none" xmlns="http://www.w3.org/2000/svg">
<g id="facebook">
<path id="Vector" fill-rule="evenodd" clip-rule="evenodd" d="M56 33.6339C55.9992 29.3078 54.7665 25.0726 52.4477 21.4295C50.1289 17.7865 46.8212 14.8882 42.9161 13.0777C39.0111 11.2673 34.6722 10.6206 30.4131 11.2141C26.1541 11.8076 22.1533 13.6165 18.8843 16.4267C15.6153 19.2368 13.215 22.9305 11.9676 27.0706C10.7203 31.2106 10.678 35.6235 11.8459 39.7869C13.0138 43.9504 15.3429 47.6899 18.5575 50.5629C21.7721 53.4359 25.7375 55.322 29.9844 55.998V40.1797H24.27V33.6339H29.9844V28.6454C29.9844 22.9728 33.3443 19.8368 38.4832 19.8368C40.1708 19.8605 41.8544 20.0084 43.5205 20.2795V25.8511H40.6819C40.1983 25.7867 39.7065 25.8325 39.2429 25.9852C38.7793 26.1379 38.3557 26.3935 38.0036 26.7331C37.6515 27.0728 37.3798 27.4878 37.2086 27.9474C37.0374 28.4069 36.9711 28.8994 37.0146 29.3882V33.6349H43.2543L42.2579 40.1807H37.0146V56C42.3075 55.1566 47.1277 52.4405 50.6079 48.3405C54.0882 44.2405 56.0002 39.0256 56 33.6338V33.6339Z" fill="#1877F2"/>
</g>
</svg>
