<svg width="1502" height="645" viewBox="0 0 1502 645" fill="none" xmlns="http://www.w3.org/2000/svg">
<g id="Group 3">
<g id="boost">
<g id="Group">
<path id="Vector" d="M259.283 473.8C258.803 493.677 274.526 510.18 294.402 510.661C314.279 511.142 330.781 495.418 331.262 475.542C331.743 455.666 316.02 439.163 296.144 438.682C276.267 438.201 259.764 453.924 259.283 473.8Z" fill="#D6D6D6"/>
</g>
<path id="Vector_2" d="M331.262 475.542C331.329 472.791 331.058 470.112 330.536 467.522C326.513 483.458 311.92 495.08 294.789 494.665C277.658 494.251 263.652 481.937 260.397 465.825C259.75 468.386 259.35 471.049 259.283 473.801C258.802 493.679 274.524 510.18 294.402 510.661C314.28 511.142 330.781 495.42 331.262 475.542Z" fill="#CFCFCF"/>
<path id="Vector_3" d="M278.31 514.273C277.829 534.149 293.552 550.652 313.429 551.133C333.305 551.614 349.808 535.891 350.289 516.014C350.77 496.138 335.047 479.635 315.17 479.154C295.294 478.673 278.791 494.396 278.31 514.273Z" fill="#D6D6D6"/>
<path id="Vector_4" d="M350.289 516.014C350.322 514.663 350.266 513.329 350.15 512.01C347.723 529.956 332.141 543.583 313.622 543.135C295.104 542.687 280.199 528.322 278.643 510.28C278.471 511.592 278.343 512.921 278.31 514.273C277.829 534.151 293.55 550.652 313.429 551.133C333.307 551.614 349.808 535.892 350.289 516.014Z" fill="#CFCFCF"/>
<path id="Vector_5" d="M240.644 417.333C240.163 437.209 255.886 453.712 275.762 454.193C295.639 454.674 312.142 438.951 312.623 419.075C313.104 399.198 297.38 382.695 277.504 382.214C257.628 381.733 241.125 397.457 240.644 417.333Z" fill="#D6D6D6"/>
<path id="Vector_6" d="M312.623 419.075C312.672 417.027 312.509 415.027 312.228 413.063C308.953 430.009 293.883 442.628 276.053 442.197C258.222 441.765 243.78 428.432 241.329 411.348C240.954 413.295 240.693 415.286 240.644 417.333C240.163 437.211 255.884 453.712 275.762 454.193C295.641 454.674 312.142 438.953 312.623 419.075Z" fill="#CFCFCF"/>
<path id="Vector_7" d="M216.489 488.992C216.008 508.868 231.732 525.371 251.608 525.852C271.485 526.333 287.987 510.61 288.468 490.734C288.949 470.857 273.226 454.354 253.35 453.873C233.473 453.392 216.97 469.116 216.489 488.992Z" fill="#D6D6D6"/>
<path id="Vector_8" d="M288.468 496.743C288.501 495.392 288.445 494.058 288.329 492.739C285.902 510.685 270.32 524.312 251.802 523.864C233.283 523.416 218.378 509.051 216.822 491.008C216.646 492.321 216.522 493.65 216.489 495.002C216.008 514.88 231.73 531.381 251.608 531.862C271.486 532.343 287.987 516.621 288.468 496.743Z" fill="#CFCFCF"/>
<path id="b1" d="M129.49 360.992C129.009 380.868 144.732 397.371 164.608 397.852C184.485 398.333 200.988 382.61 201.468 362.734C201.949 342.857 186.226 326.354 166.35 325.873C146.473 325.392 129.97 341.116 129.49 360.992Z" fill="#D6D6D6"/>
<g id="Group_2">
<path id="b3" d="M131.49 417.992C131.009 437.868 146.732 454.371 166.608 454.852C186.485 455.333 202.988 439.61 203.468 419.734C203.949 399.857 188.226 383.354 168.35 382.873C148.473 382.392 131.97 398.116 131.49 417.992Z" fill="#CFCFCF"/>
<path id="b6" d="M237.292 454.787C236.812 474.664 252.535 491.167 272.411 491.648C292.288 492.128 308.79 476.405 309.271 456.529C309.752 436.652 294.029 420.15 274.153 419.669C254.276 419.188 237.773 434.911 237.292 454.787Z" fill="#CFCFCF"/>
<path id="b4" d="M290.632 400.062C291.113 380.183 275.391 363.682 255.513 363.201C245.696 362.964 236.707 366.691 230.059 372.908C226.727 377.657 223.584 382.543 220.583 387.519C219.42 390.916 218.744 394.541 218.653 398.32C218.172 418.198 233.893 434.699 253.771 435.18C273.65 435.661 290.151 419.94 290.632 400.062Z" fill="#CFCFCF"/>
<path id="b5" d="M183.49 454.992C183.009 474.868 198.732 491.371 218.608 491.852C238.485 492.333 254.988 476.61 255.468 456.733C255.949 436.857 240.226 420.354 220.35 419.873C200.473 419.392 183.97 435.115 183.49 454.992Z" fill="#CFCFCF"/>
<path id="b5_2" d="M127.87 464.992C127.389 484.868 143.112 501.371 162.989 501.852C182.865 502.333 199.368 486.61 199.849 466.734C200.33 446.857 184.607 430.354 164.73 429.873C144.854 429.392 128.351 445.116 127.87 464.992Z" fill="#CFCFCF"/>
<path id="b5_3" d="M147.87 496.992C147.389 516.869 163.112 533.371 182.989 533.852C202.865 534.333 219.368 518.61 219.849 498.734C220.33 478.857 204.607 462.354 184.73 461.873C164.854 461.393 148.351 477.116 147.87 496.992Z" fill="#CFCFCF"/>
<path id="b5_4" d="M214.87 508.992C214.389 528.869 230.112 545.371 249.988 545.852C269.865 546.333 286.368 530.61 286.849 510.734C287.33 490.857 271.606 474.354 251.73 473.873C231.854 473.393 215.351 489.116 214.87 508.992Z" fill="#CFCFCF"/>
<path id="b5_5" d="M90.8699 362.992C90.389 382.868 106.112 399.371 125.989 399.852C145.865 400.333 162.368 384.61 162.849 364.734C163.33 344.857 147.607 328.354 127.73 327.873C107.854 327.392 91.3508 343.116 90.8699 362.992Z" fill="#CFCFCF"/>
<path id="Vector_9" d="M257.468 411.734C257.949 391.855 242.228 375.354 222.35 374.873C202.472 374.392 185.97 390.114 185.489 409.992C185.398 413.771 185.898 417.42 186.895 420.869C189.66 425.99 192.563 431.021 195.657 435.926C201.997 442.457 210.791 446.615 220.608 446.852C240.486 447.333 256.987 431.612 257.468 411.734Z" fill="#CFCFCF"/>
<path id="b2" d="M168.49 372.992C168.009 392.868 183.732 409.371 203.608 409.852C223.485 410.333 239.988 394.61 240.469 374.734C240.949 354.857 225.226 338.354 205.35 337.873C185.473 337.392 168.97 353.116 168.49 372.992Z" fill="#CFCFCF"/>
<path id="Vector_10" d="M346.281 518.913C346.22 521.444 362.561 523.892 382.78 524.382C402.998 524.871 419.439 523.216 419.5 520.685C419.561 518.154 403.22 515.706 383.001 515.216C362.783 514.727 346.343 516.382 346.281 518.913Z" fill="#CFCFCF"/>
</g>
<path id="b5_6" d="M88.8699 422.992C88.389 442.868 104.112 459.371 123.989 459.852C143.865 460.333 160.368 444.61 160.849 424.734C161.33 404.857 145.607 388.354 125.73 387.873C105.854 387.392 89.3509 403.116 88.8699 422.992Z" fill="#CFCFCF"/>
</g>
<g id="air">
<path id="Vector_11" d="M1311.07 257.818C1311.03 259.374 1333.41 261.178 1361.04 261.847C1388.68 262.515 1411.12 261.796 1411.16 260.24C1411.19 258.683 1388.82 256.88 1361.18 256.211C1333.54 255.542 1311.11 256.262 1311.07 257.818Z" fill="#CFCFCF"/>
<path id="Vector_12" d="M1401.07 477.818C1401.03 479.374 1423.41 481.178 1451.04 481.847C1478.68 482.515 1501.12 481.796 1501.16 480.24C1501.19 478.683 1478.82 476.88 1451.18 476.211C1423.54 475.542 1401.11 476.262 1401.07 477.818Z" fill="#CFCFCF"/>
<path id="Vector_13" d="M1204.07 2.81795C1204.03 4.37425 1226.41 6.17801 1254.04 6.84674C1281.68 7.51548 1304.12 6.79594 1304.16 5.23964C1304.19 3.68333 1281.82 1.87958 1254.18 1.21085C1226.54 0.542115 1204.11 1.26164 1204.07 2.81795Z" fill="#CFCFCF"/>
<path id="Vector_14" d="M88.0682 207.818C88.0306 209.374 110.406 211.178 138.044 211.847C165.683 212.515 188.119 211.796 188.157 210.24C188.194 208.683 165.819 206.88 138.181 206.211C110.542 205.542 88.1059 206.262 88.0682 207.818Z" fill="#CFCFCF"/>
<path id="Vector_15" d="M195.068 10.8179C195.031 12.3743 217.406 14.178 245.044 14.8467C272.683 15.5155 295.119 14.7959 295.157 13.2396C295.194 11.6833 272.819 9.87958 245.181 9.21085C217.542 8.54211 195.106 9.26164 195.068 10.8179Z" fill="#CFCFCF"/>
<path id="Vector_16" d="M749.068 102.818C749.03 104.374 771.405 106.178 799.044 106.847C826.683 107.515 849.119 106.796 849.156 105.24C849.194 103.683 826.819 101.88 799.181 101.211C771.542 100.542 749.106 101.262 749.068 102.818Z" fill="#CFCFCF"/>
</g>
<rect id="road" y="589" width="1499" height="13" fill="#C4C4C4"/>
<g id="undraw_street_food_hm5i 1">
<path id="Vector_17" d="M1184 531L1138.94 527.755H546.594V443.241H1184V531Z" fill="#C5C5C5"/>
<path id="Vector_18" d="M1209.04 401.698V530.637L1165.6 530.087C1165.6 529.17 1165.66 528.254 1165.66 527.392C1165.66 505.267 1156.64 484.048 1140.58 468.403C1124.52 452.758 1102.73 443.969 1080.02 443.969C1057.3 443.969 1035.51 452.758 1019.45 468.403C1003.39 484.048 994.367 505.267 994.367 527.392C994.367 527.575 994.367 527.759 994.367 527.933L951.006 527.383H726.267C726.264 524.32 726.088 521.259 725.74 518.215C725.58 516.749 725.382 515.309 725.128 513.879C724.523 510.202 723.662 506.57 722.549 503.007C722.098 501.54 721.608 500.101 721.062 498.671C719.658 494.948 717.985 491.327 716.055 487.835C715.246 486.359 714.38 484.919 713.476 483.499C711.047 479.678 708.306 476.054 705.278 472.663C703.942 471.165 702.558 469.72 701.128 468.327C685.069 452.711 663.305 443.94 640.614 443.94C617.922 443.94 596.158 452.711 580.099 468.327C578.663 469.726 577.279 471.172 575.949 472.663C572.922 476.054 570.18 479.678 567.751 483.499C566.81 484.919 565.982 486.359 565.172 487.835C563.242 491.327 561.569 494.948 560.165 498.671C559.628 500.101 559.13 501.54 558.678 503.007C557.567 506.558 556.706 510.178 556.099 513.843C555.845 515.273 555.647 516.712 555.487 518.179C555.139 521.223 554.963 524.283 554.96 527.346H469.311V242.424H1073.36L1133.29 369.695L1207.76 401.157L1209.04 401.698Z" fill="#192534"/>
<path id="Vector_19" d="M482.648 215.335H1049.81C1056.05 215.335 1062.04 217.749 1066.45 222.047C1070.86 226.345 1073.34 232.175 1073.34 238.253V242.424H469.302V228.325C469.302 226.618 469.647 224.928 470.318 223.352C470.989 221.775 471.972 220.343 473.212 219.136C474.451 217.93 475.922 216.973 477.542 216.321C479.161 215.669 480.896 215.334 482.648 215.335V215.335Z" fill="#C5C5C5"/>
<path id="Vector_20" opacity="0.1" d="M524.578 485.121H467.42C461.702 485.121 457.066 489.636 457.066 495.205V527.044C457.066 532.613 461.702 537.128 467.42 537.128H524.578C530.296 537.128 534.932 532.613 534.932 527.044V495.205C534.932 489.636 530.296 485.121 524.578 485.121Z" fill="black"/>
<path id="Vector_21" opacity="0.1" d="M950.413 526.842H885.894V241.883H1012.7V439.073L950.413 526.842Z" fill="black"/>
<path id="Vector_22" d="M523.468 487.294H466.309C460.591 487.294 455.956 491.809 455.956 497.378V529.216C455.956 534.786 460.591 539.3 466.309 539.3H523.468C529.186 539.3 533.821 534.786 533.821 529.216V497.378C533.821 491.809 529.186 487.294 523.468 487.294Z" fill="#C5C5C5"/>
<path id="Vector_23" opacity="0.1" d="M1214.94 482.958H1198.7C1191.51 482.958 1185.68 488.634 1185.68 495.636V530.958C1185.68 537.96 1191.51 543.636 1198.7 543.636H1214.94C1222.12 543.636 1227.95 537.96 1227.95 530.958V495.636C1227.95 488.634 1222.12 482.958 1214.94 482.958Z" fill="black"/>
<path id="Vector_24" d="M1217.16 484.039H1200.92C1193.73 484.039 1187.9 489.716 1187.9 496.718V532.04C1187.9 539.042 1193.73 544.718 1200.92 544.718H1217.16C1224.35 544.718 1230.17 539.042 1230.17 532.04V496.718C1230.17 489.716 1224.35 484.039 1217.16 484.039Z" fill="#C5C5C5"/>
<path id="Vector_25" d="M982.63 263.014H919.306C910.989 263.014 904.247 269.581 904.247 277.682V374.031C904.247 382.132 910.989 388.699 919.306 388.699H982.63C990.947 388.699 997.689 382.132 997.689 374.031V277.682C997.689 269.581 990.947 263.014 982.63 263.014Z" fill="#F5F5F5"/>
<path id="Vector_26" d="M992.127 399.525H979.891V425.533H992.127V399.525Z" fill="#C5C5C5"/>
<path id="Vector_27" d="M1035.51 280.881V370.63C1035.51 371.972 1036.05 373.259 1037.03 374.208C1038 375.157 1039.32 375.69 1040.7 375.69H1097.41C1098.33 375.69 1099.24 375.449 1100.04 374.994C1100.83 374.538 1101.49 373.884 1101.94 373.099C1102.39 372.313 1102.62 371.425 1102.6 370.525C1102.58 369.626 1102.32 368.747 1101.83 367.981L1045.13 278.232C1044.53 277.294 1043.64 276.571 1042.59 276.171C1041.53 275.771 1040.38 275.717 1039.29 276.017C1038.2 276.316 1037.24 276.953 1036.56 277.831C1035.88 278.709 1035.51 279.78 1035.51 280.881V280.881Z" fill="#F5F5F5"/>
<path id="Vector_28" d="M934.281 263.014L904.247 289.013V302.562L947.071 263.014H934.281Z" fill="white"/>
<path id="Vector_29" d="M904.247 318.257V333.979L975.439 263.014H961.528L904.247 318.257Z" fill="white"/>
<path id="Vector_30" d="M1054.33 292.808L1035.51 318.257V328.02L1060.49 302.562L1054.33 292.808Z" fill="white"/>
<path id="Vector_31" d="M1069.06 318.257L1035.51 346.171V354.028L1076.58 328.02L1069.06 318.257Z" fill="white"/>
<path id="Vector_32" opacity="0.1" d="M885.894 437.992H468.747V442.328H885.894V437.992Z" fill="black"/>
<path id="Vector_33" opacity="0.1" d="M1201.25 442.328H1010.48L1012.7 439.074V437.992H1201.25" fill="black"/>
<path id="Vector_34" opacity="0.1" d="M1201.25 423.911H1012.7V419.575H1201.25" fill="black"/>
<path id="Vector_35" opacity="0.1" d="M1201.25 405.484H1012.7V401.157H1199.97" fill="black"/>
<path id="Vector_36" opacity="0.1" d="M601.446 453.164C598.826 454.48 596.278 455.927 593.813 457.5H468.747V453.164H601.446Z" fill="black"/>
<path id="Vector_37" opacity="0.1" d="M885.894 453.164V457.5H687.415C684.949 455.927 682.401 454.48 679.781 453.164H885.894Z" fill="black"/>
<path id="Vector_38" opacity="0.1" d="M580.1 468.336C578.663 469.735 577.279 471.181 575.949 472.672H468.747V468.336H580.1Z" fill="black"/>
<path id="Vector_39" opacity="0.1" d="M885.894 468.336V472.672H705.278C703.942 471.175 702.558 469.729 701.128 468.336H885.894Z" fill="black"/>
<path id="Vector_40" opacity="0.1" d="M567.751 483.499C566.81 484.919 565.982 486.359 565.172 487.835H468.747V483.499H567.751Z" fill="black"/>
<path id="Vector_41" opacity="0.1" d="M885.894 483.499V487.835H716.055C715.246 486.359 714.38 484.919 713.476 483.499H885.894Z" fill="black"/>
<path id="Vector_42" opacity="0.1" d="M560.165 498.671C559.628 500.101 559.13 501.54 558.678 503.007H535.487V498.671H560.165Z" fill="black"/>
<path id="Vector_43" opacity="0.1" d="M885.894 498.671V503.007H722.549C722.098 501.54 721.608 500.101 721.062 498.671H885.894Z" fill="black"/>
<path id="Vector_44" opacity="0.1" d="M556.09 513.843C555.835 515.273 555.638 516.712 555.478 518.179H535.487V513.843H556.09Z" fill="black"/>
<path id="Vector_45" opacity="0.1" d="M885.894 513.843V518.179H725.74C725.58 516.712 725.382 515.273 725.128 513.843H885.894Z" fill="black"/>
<g id="Group_3" opacity="0.1">
<path id="Vector_46" opacity="0.1" d="M484.098 389.331C484.709 393.695 481.519 395.941 476.305 395.703C481.086 395.446 483.683 392.769 482.309 388.002C482.291 388.011 482.987 388.552 484.098 389.331Z" fill="black"/>
<path id="Vector_47" opacity="0.1" d="M504.371 422.682L506.658 424.167C506.448 424.392 506.177 424.554 505.877 424.635L504.286 423.599L504.371 422.682Z" fill="black"/>
<path id="Vector_48" opacity="0.1" d="M439.701 410.48C439.701 410.48 447.231 437.827 450.732 441.732C454.017 445.399 449.838 473.396 449.292 476.999L447.73 477.384C447.73 477.384 452.746 445.647 449.236 441.741C445.725 437.836 439.701 410.48 439.701 410.48Z" fill="black"/>
<path id="Vector_49" opacity="0.1" d="M469.274 475.422C471.373 477.127 487.326 477.402 496.823 477.411C487.618 477.411 469.98 477.21 467.777 475.422C466.897 474.902 465.878 474.65 464.85 474.698C466.883 474.588 468.521 474.808 469.274 475.422Z" fill="black"/>
</g>
<path id="Vector_50" opacity="0.1" d="M449.97 426.588L431.419 422.196L432.934 414.138L440.944 412.919L451.476 416.329L449.97 426.588Z" fill="black"/>
<path id="Vector_51" d="M449.97 426.102L431.419 421.701L432.934 413.643L440.944 412.424L451.476 415.843L449.97 426.102Z" fill="#E2E8F0"/>
<g id="wheel1">
<path id="Vector_52" d="M640.609 585.889C673.783 585.889 700.676 559.695 700.676 527.383C700.676 495.071 673.783 468.877 640.609 468.877C607.435 468.877 580.542 495.071 580.542 527.383C580.542 559.695 607.435 585.889 640.609 585.889Z" fill="#192534"/>
<path id="Vector_53" d="M640.609 559.89C659.041 559.89 673.984 545.336 673.984 527.383C673.984 509.429 659.041 494.875 640.609 494.875C622.177 494.875 607.234 509.429 607.234 527.383C607.234 545.336 622.177 559.89 640.609 559.89Z" fill="white"/>
<path id="Vector_54" d="M640.054 535.514C644.971 535.514 648.957 531.631 648.957 526.842C648.957 522.052 644.971 518.17 640.054 518.17C635.136 518.17 631.15 522.052 631.15 526.842C631.15 531.631 635.136 535.514 640.054 535.514Z" fill="#1A2246"/>
<g id="Group 1">
<line id="Line 1" x1="640.5" y1="495" x2="640.5" y2="560" stroke="black"/>
<line id="Line 2" x1="615.334" y1="504.628" x2="665.334" y2="549.628" stroke="black"/>
<line id="Line 3" x1="666.31" y1="507.393" x2="614.31" y2="548.393" stroke="black"/>
</g>
</g>
<g id="wheel2">
<path id="Vector_55" d="M1080.01 585.889C1113.18 585.889 1140.07 559.695 1140.07 527.383C1140.07 495.071 1113.18 468.877 1080.01 468.877C1046.83 468.877 1019.94 495.071 1019.94 527.383C1019.94 559.695 1046.83 585.889 1080.01 585.889Z" fill="#192534"/>
<path id="Vector_56" d="M1080.01 559.89C1098.44 559.89 1113.38 545.336 1113.38 527.383C1113.38 509.429 1098.44 494.875 1080.01 494.875C1061.57 494.875 1046.63 509.429 1046.63 527.383C1046.63 545.336 1061.57 559.89 1080.01 559.89Z" fill="white"/>
<path id="Vector_57" d="M1080.56 535.514C1085.48 535.514 1089.46 531.631 1089.46 526.842C1089.46 522.052 1085.48 518.17 1080.56 518.17C1075.64 518.17 1071.66 522.052 1071.66 526.842C1071.66 531.631 1075.64 535.514 1080.56 535.514Z" fill="#1A2246"/>
<g id="Group 2">
<line id="Line 1_2" x1="1080.5" y1="495" x2="1080.5" y2="560" stroke="black"/>
<line id="Line 2_2" x1="1055.33" y1="504.628" x2="1105.33" y2="549.628" stroke="black"/>
<line id="Line 3_2" x1="1106.31" y1="507.393" x2="1054.31" y2="548.393" stroke="black"/>
</g>
</g>
<path id="Vector_58" d="M457.004 528.652L457.201 516.418L431.196 516L431 528.234L457.004 528.652Z" fill="#C5C5C5"/>
</g>
</g>
</svg>
