<svg width="1725" height="826" viewBox="0 0 1725 826" fill="none" xmlns="http://www.w3.org/2000/svg">
<g id="stop">
<g id="cloud2">
<g id="c1">
<path id="Vector 4" opacity="0.1" d="M319.612 173.14C313.974 172.075 308.147 172.712 302.872 174.97C299.703 176.384 296.272 177.115 292.802 177.115C289.332 177.115 285.901 176.384 282.732 174.97C278.987 173.329 274.93 172.52 270.841 172.6C266.753 172.679 262.731 173.645 259.052 175.43C256.951 176.546 254.61 177.132 252.232 177.14C242.632 177.14 234.642 167.47 232.982 154.71C234.898 153.306 236.528 151.548 237.782 149.53C243.412 140.46 252.132 134.64 261.922 134.64C271.712 134.64 280.322 140.39 285.922 149.37C287.609 152.07 289.962 154.289 292.756 155.815C295.55 157.34 298.689 158.12 301.872 158.08H302.122C309.772 158.08 316.392 164.21 319.612 173.14Z" fill="#6C63FF"/>
<path id="c1_2" opacity="0.1" d="M348.872 133.09L333.352 142.94L342.762 125.83C340.09 123.703 336.787 122.525 333.372 122.48H333.122C332.044 122.499 330.966 122.422 329.902 122.25L324.642 125.58L326.902 121.48C323.172 120.178 319.951 117.727 317.702 114.48L308.282 120.48L314.232 109.67C308.722 103.06 301.302 99 293.142 99C283.352 99 274.632 104.83 269.002 113.9C267.337 116.623 264.978 118.855 262.166 120.366C259.355 121.877 256.192 122.614 253.002 122.5H252.472C241.662 122.5 232.902 134.76 232.902 149.87C232.902 164.98 241.662 177.24 252.472 177.24C254.849 177.232 257.189 176.649 259.292 175.54C262.969 173.751 266.992 172.782 271.08 172.7C275.169 172.619 279.227 173.428 282.972 175.07C286.137 176.492 289.567 177.231 293.037 177.24C296.507 177.249 299.94 176.526 303.112 175.12C306.83 173.509 310.85 172.716 314.901 172.793C318.952 172.871 322.939 173.818 326.592 175.57C328.672 176.659 330.984 177.232 333.332 177.24C344.142 177.24 352.902 164.99 352.902 149.87C352.991 144.027 351.605 138.256 348.872 133.09Z" fill="black"/>
</g>
<g id="c3">
<path id="Vector 5" opacity="0.1" d="M764.612 336.62C760.658 335.87 756.571 336.315 752.872 337.9C750.654 338.892 748.252 339.405 745.822 339.405C743.392 339.405 740.99 338.892 738.772 337.9C736.15 336.752 733.309 336.185 730.447 336.241C727.584 336.296 724.768 336.971 722.192 338.22C720.722 339 719.086 339.411 717.422 339.42C710.702 339.42 705.112 332.64 703.952 323.71C705.294 322.73 706.435 321.501 707.312 320.09C711.252 313.74 717.312 309.67 724.202 309.67C731.092 309.67 737.092 313.67 741.032 319.97C742.209 321.865 743.854 323.425 745.808 324.5C747.763 325.576 749.961 326.13 752.192 326.11H752.372C757.722 326.08 762.352 330.37 764.612 336.62Z" fill="#6C63FF"/>
<path id="c3_2" opacity="0.1" d="M785.14 307.9L774.28 314.79L780.87 302.79C779.004 301.294 776.691 300.466 774.3 300.44H774.13C773.376 300.459 772.622 300.402 771.88 300.27L768.19 302.61L769.77 299.74C767.162 298.828 764.909 297.117 763.33 294.85L756.74 299.03L760.9 291.46C757.05 286.84 751.85 284 746.14 284C739.29 284 733.14 288.07 729.24 294.42C728.071 296.315 726.422 297.867 724.461 298.921C722.5 299.974 720.295 300.491 718.07 300.42H717.7C710.14 300.42 704 309 704 319.58C704 330.16 710.14 338.74 717.7 338.74C719.364 338.736 721.002 338.324 722.47 337.54C725.046 336.291 727.862 335.616 730.725 335.561C733.587 335.505 736.428 336.072 739.05 337.22C741.281 338.216 743.696 338.734 746.14 338.74C748.552 338.737 750.936 338.229 753.14 337.25C755.742 336.123 758.555 335.569 761.39 335.624C764.224 335.679 767.014 336.343 769.57 337.57C771.027 338.333 772.646 338.735 774.29 338.74C781.86 338.74 787.99 330.16 787.99 319.58C788.031 315.51 787.051 311.494 785.14 307.9Z" fill="black"/>
</g>
<g id="c2">
<path id="Vector 6" opacity="0.1" d="M187.282 291.62C191.236 290.87 195.323 291.316 199.022 292.9C201.238 293.892 203.639 294.405 206.067 294.405C208.495 294.405 210.896 293.892 213.112 292.9C215.734 291.752 218.575 291.185 221.437 291.241C224.3 291.296 227.116 291.971 229.692 293.22C231.162 293.999 232.799 294.41 234.462 294.42C241.182 294.42 246.782 287.64 247.942 278.71C246.597 277.733 245.456 276.504 244.582 275.09C240.642 268.74 234.582 264.67 227.682 264.67C220.782 264.67 214.802 268.67 210.862 274.97C209.684 276.866 208.038 278.428 206.081 279.503C204.125 280.578 201.924 281.132 199.692 281.11H199.522C194.172 281.08 189.532 285.37 187.282 291.62Z" fill="#6C63FF"/>
<path id="c2_2" opacity="0.1" d="M166.802 263.59L177.672 270.48L171.072 258.48C172.938 256.985 175.251 256.158 177.642 256.13H177.872C178.626 256.149 179.38 256.092 180.122 255.96L183.802 258.3L182.222 255.43C184.833 254.519 187.09 252.808 188.672 250.54L195.262 254.72L191.092 247.15C194.952 242.53 200.142 239.69 205.862 239.69C212.712 239.69 218.812 243.76 222.762 250.11C223.93 252.005 225.579 253.558 227.54 254.612C229.502 255.665 231.707 256.182 233.932 256.11H234.292C241.862 256.11 247.992 264.69 247.992 275.27C247.992 285.85 241.862 294.43 234.292 294.43C232.628 294.424 230.991 294.012 229.522 293.23C226.946 291.981 224.129 291.306 221.267 291.251C218.405 291.195 215.564 291.762 212.942 292.91C210.714 293.906 208.302 294.424 205.862 294.43C203.45 294.429 201.065 293.921 198.862 292.94C196.259 291.813 193.444 291.259 190.607 291.314C187.771 291.369 184.98 292.033 182.422 293.26C180.966 294.024 179.347 294.426 177.702 294.43C170.142 294.43 164.002 285.85 164.002 275.27C163.945 271.204 164.908 267.188 166.802 263.59Z" fill="black"/>
</g>
</g>
<g id="cloud1">
<g id="c1_3">
<path id="Vector 4_2" opacity="0.1" d="M759.612 74.14C753.974 73.075 748.147 73.712 742.872 75.97C739.703 77.384 736.272 78.115 732.802 78.115C729.332 78.115 725.901 77.384 722.732 75.97C718.987 74.329 714.93 73.52 710.841 73.6C706.753 73.679 702.731 74.645 699.052 76.43C696.951 77.546 694.61 78.132 692.232 78.14C682.632 78.14 674.642 68.47 672.982 55.71C674.898 54.306 676.528 52.548 677.782 50.53C683.412 41.46 692.132 35.64 701.922 35.64C711.712 35.64 720.322 41.39 725.922 50.37C727.609 53.07 729.962 55.289 732.756 56.815C735.55 58.34 738.689 59.12 741.872 59.08H742.122C749.772 59.08 756.392 65.21 759.612 74.14Z" fill="#6C63FF"/>
<path id="c1_4" opacity="0.1" d="M788.872 34.09L773.352 43.94L782.762 26.83C780.09 24.703 776.787 23.5246 773.372 23.48H773.122C772.044 23.4991 770.966 23.4221 769.902 23.25L764.642 26.58L766.902 22.48C763.172 21.1781 759.951 18.7274 757.702 15.48L748.282 21.48L754.232 10.67C748.722 4.06 741.302 0 733.142 0C723.352 0 714.632 5.83 709.002 14.9C707.337 17.6234 704.978 19.8551 702.166 21.3663C699.355 22.8775 696.192 23.6139 693.002 23.5H692.472C681.662 23.5 672.902 35.76 672.902 50.87C672.902 65.98 681.662 78.24 692.472 78.24C694.849 78.232 697.189 77.649 699.292 76.54C702.969 74.751 706.992 73.782 711.08 73.7C715.169 73.619 719.227 74.428 722.972 76.07C726.137 77.492 729.567 78.231 733.037 78.24C736.507 78.249 739.94 77.526 743.112 76.12C746.83 74.509 750.85 73.716 754.901 73.793C758.952 73.871 762.939 74.818 766.592 76.57C768.672 77.659 770.984 78.232 773.332 78.24C784.142 78.24 792.902 65.99 792.902 50.87C792.991 45.0268 791.605 39.2556 788.872 34.09Z" fill="black"/>
</g>
<g id="c3_3">
<path id="Vector 5_2" opacity="0.1" d="M1204.61 237.62C1200.66 236.87 1196.57 237.315 1192.87 238.9C1190.65 239.892 1188.25 240.405 1185.82 240.405C1183.39 240.405 1180.99 239.892 1178.77 238.9C1176.15 237.752 1173.31 237.185 1170.45 237.241C1167.58 237.296 1164.77 237.971 1162.19 239.22C1160.72 240 1159.09 240.411 1157.42 240.42C1150.7 240.42 1145.11 233.64 1143.95 224.71C1145.29 223.73 1146.44 222.501 1147.31 221.09C1151.25 214.74 1157.31 210.67 1164.2 210.67C1171.09 210.67 1177.09 214.67 1181.03 220.97C1182.21 222.865 1183.85 224.425 1185.81 225.5C1187.76 226.576 1189.96 227.13 1192.19 227.11H1192.37C1197.72 227.08 1202.35 231.37 1204.61 237.62Z" fill="#6C63FF"/>
<path id="c3_4" opacity="0.1" d="M1225.14 208.9L1214.28 215.79L1220.87 203.79C1219 202.294 1216.69 201.466 1214.3 201.44H1214.13C1213.38 201.459 1212.62 201.402 1211.88 201.27L1208.19 203.61L1209.77 200.74C1207.16 199.828 1204.91 198.117 1203.33 195.85L1196.74 200.03L1200.9 192.46C1197.05 187.84 1191.85 185 1186.14 185C1179.29 185 1173.14 189.07 1169.24 195.42C1168.07 197.315 1166.42 198.867 1164.46 199.921C1162.5 200.974 1160.3 201.491 1158.07 201.42H1157.7C1150.14 201.42 1144 210 1144 220.58C1144 231.16 1150.14 239.74 1157.7 239.74C1159.36 239.736 1161 239.324 1162.47 238.54C1165.05 237.291 1167.86 236.616 1170.73 236.561C1173.59 236.505 1176.43 237.072 1179.05 238.22C1181.28 239.216 1183.7 239.734 1186.14 239.74C1188.55 239.737 1190.94 239.229 1193.14 238.25C1195.74 237.123 1198.56 236.569 1201.39 236.624C1204.22 236.679 1207.01 237.343 1209.57 238.57C1211.03 239.333 1212.65 239.735 1214.29 239.74C1221.86 239.74 1227.99 231.16 1227.99 220.58C1228.03 216.51 1227.05 212.494 1225.14 208.9Z" fill="black"/>
</g>
<g id="c2_3">
<path id="Vector 6_2" opacity="0.1" d="M560.718 280.355C565.425 279.382 570.29 279.961 574.694 282.015C577.332 283.302 580.19 283.968 583.081 283.968C585.972 283.968 588.83 283.302 591.468 282.015C594.589 280.526 597.972 279.791 601.379 279.864C604.787 279.935 608.14 280.811 611.206 282.431C612.956 283.441 614.905 283.974 616.885 283.987C624.885 283.987 631.552 275.193 632.933 263.61C631.332 262.343 629.973 260.749 628.933 258.915C624.242 250.679 617.028 245.4 608.814 245.4C600.599 245.4 593.48 250.588 588.789 258.76C587.387 261.219 585.427 263.245 583.098 264.639C580.769 266.033 578.149 266.752 575.492 266.723H575.289C568.92 266.684 563.396 272.249 560.718 280.355Z" fill="#6C63FF"/>
<path id="c2_4" opacity="0.1" d="M536.336 243.999L549.277 252.936L541.42 237.371C543.641 235.432 546.395 234.36 549.241 234.323H549.515C550.413 234.348 551.31 234.274 552.194 234.103L556.575 237.138L554.694 233.415C557.802 232.234 560.489 230.015 562.372 227.073L570.218 232.495L565.253 222.676C569.849 216.684 576.027 213 582.837 213C590.992 213 598.254 218.279 602.956 226.515C604.347 228.973 606.31 230.987 608.644 232.354C610.98 233.72 613.605 234.391 616.254 234.297H616.683C625.695 234.297 632.992 245.426 632.992 259.149C632.992 272.871 625.695 284 616.683 284C614.702 283.992 612.753 283.458 611.004 282.444C607.937 280.824 604.584 279.948 601.176 279.877C597.769 279.804 594.387 280.54 591.266 282.029C588.613 283.32 585.742 283.992 582.837 284C579.965 283.999 577.126 283.34 574.503 282.067C571.405 280.606 568.053 279.887 564.676 279.958C561.3 280.03 557.977 280.891 554.932 282.482C553.198 283.473 551.271 283.995 549.313 284C540.312 284 533.003 272.871 533.003 259.149C532.935 253.875 534.081 248.666 536.336 243.999Z" fill="black"/>
</g>
</g>
<rect id="road" y="813" width="1499" height="13" fill="#C4C4C4"/>
<g id="truck">
<rect id="Rectangle 1" width="20" height="345" transform="matrix(-1 0 0 1 1228 467)" fill="#C4C4C4"/>
<path id="Vector" d="M992 757.665L946.945 754.42H354.594V669.906H992V757.665Z" fill="#C5C5C5"/>
<path id="Vector_2" d="M1017.04 628.363V757.302L973.598 756.752C973.598 755.836 973.664 754.919 973.664 754.057C973.664 731.932 964.64 710.713 948.578 695.068C932.516 679.423 910.731 670.634 888.015 670.634C865.3 670.634 843.515 679.423 827.452 695.068C811.39 710.713 802.367 731.932 802.367 754.057C802.367 754.24 802.367 754.424 802.367 754.598L759.006 754.048H534.267C534.264 750.985 534.088 747.925 533.74 744.881C533.58 743.414 533.382 741.975 533.128 740.544C532.523 736.867 531.662 733.235 530.549 729.672C530.098 728.205 529.608 726.766 529.062 725.336C527.658 721.613 525.985 717.992 524.055 714.5C523.246 713.024 522.38 711.585 521.476 710.164C519.047 706.343 516.306 702.719 513.278 699.328C511.942 697.831 510.558 696.385 509.128 694.992C493.069 679.376 471.305 670.605 448.614 670.605C425.922 670.605 404.158 679.376 388.099 694.992C386.663 696.391 385.279 697.837 383.949 699.328C380.922 702.719 378.18 706.343 375.751 710.164C374.81 711.585 373.982 713.024 373.172 714.5C371.242 717.992 369.569 721.613 368.165 725.336C367.628 726.766 367.13 728.205 366.678 729.672C365.567 733.223 364.706 736.843 364.099 740.508C363.845 741.938 363.647 743.377 363.487 744.844C363.139 747.888 362.963 750.948 362.96 754.011H277.311V469.09H881.361L941.287 596.36L1015.76 627.823L1017.04 628.363Z" fill="#192534"/>
<path id="Vector_3" d="M290.648 442H857.812C864.053 442 870.038 444.415 874.45 448.713C878.863 453.011 881.342 458.84 881.342 464.918V469.09H277.302V454.99C277.302 453.283 277.647 451.594 278.318 450.017C278.989 448.44 279.972 447.008 281.212 445.801C282.451 444.595 283.922 443.638 285.542 442.986C287.161 442.334 288.896 441.999 290.648 442V442Z" fill="#C5C5C5"/>
<path id="Vector_4" opacity="0.1" d="M332.578 711.786H275.42C269.702 711.786 265.066 716.301 265.066 721.87V753.709C265.066 759.278 269.702 763.793 275.42 763.793H332.578C338.296 763.793 342.932 759.278 342.932 753.709V721.87C342.932 716.301 338.296 711.786 332.578 711.786Z" fill="black"/>
<path id="Vector_5" opacity="0.1" d="M758.413 753.507H693.894V468.549H820.701V665.739L758.413 753.507Z" fill="black"/>
<path id="Vector_6" d="M331.468 713.959H274.309C268.591 713.959 263.956 718.474 263.956 724.043V755.881C263.956 761.451 268.591 765.965 274.309 765.965H331.468C337.186 765.965 341.821 761.451 341.821 755.881V724.043C341.821 718.474 337.186 713.959 331.468 713.959Z" fill="#C5C5C5"/>
<path id="Vector_7" opacity="0.1" d="M1022.94 709.623H1006.7C999.511 709.623 993.683 715.299 993.683 722.301V757.623C993.683 764.625 999.511 770.302 1006.7 770.302H1022.94C1030.12 770.302 1035.95 764.625 1035.95 757.623V722.301C1035.95 715.299 1030.12 709.623 1022.94 709.623Z" fill="black"/>
<path id="Vector_8" d="M1025.16 710.705H1008.92C1001.73 710.705 995.905 716.381 995.905 723.383V758.705C995.905 765.707 1001.73 771.383 1008.92 771.383H1025.16C1032.35 771.383 1038.17 765.707 1038.17 758.705V723.383C1038.17 716.381 1032.35 710.705 1025.16 710.705Z" fill="#C5C5C5"/>
<path id="Vector_9" d="M790.63 489.679H727.306C718.989 489.679 712.247 496.246 712.247 504.347V600.696C712.247 608.797 718.989 615.364 727.306 615.364H790.63C798.947 615.364 805.689 608.797 805.689 600.696V504.347C805.689 496.246 798.947 489.679 790.63 489.679Z" fill="#F5F5F5"/>
<path id="Vector_10" d="M800.127 626.191H787.891V652.198H800.127V626.191Z" fill="#C5C5C5"/>
<path id="Vector_11" d="M843.506 507.547V597.295C843.506 598.637 844.054 599.924 845.028 600.873C846.002 601.822 847.324 602.355 848.702 602.355H905.409C906.332 602.355 907.239 602.115 908.036 601.659C908.833 601.203 909.49 600.549 909.941 599.764C910.392 598.978 910.619 598.09 910.6 597.19C910.581 596.291 910.316 595.412 909.832 594.646L853.125 504.897C852.532 503.96 851.641 503.236 850.588 502.836C849.535 502.436 848.376 502.382 847.288 502.682C846.2 502.981 845.242 503.618 844.559 504.496C843.877 505.374 843.507 506.445 843.506 507.547V507.547Z" fill="#F5F5F5"/>
<path id="Vector_12" d="M742.281 489.679L712.247 515.678V529.227L755.072 489.679H742.281Z" fill="white"/>
<path id="Vector_13" d="M712.247 544.922V560.644L783.439 489.679H769.528L712.247 544.922Z" fill="white"/>
<path id="Vector_14" d="M862.33 519.473L843.506 544.922V554.685L868.495 529.227L862.33 519.473Z" fill="white"/>
<path id="Vector_15" d="M877.06 544.922L843.506 572.837V580.693L884.58 554.685L877.06 544.922Z" fill="white"/>
<path id="Vector_16" opacity="0.1" d="M693.894 664.657H276.747V668.993H693.894V664.657Z" fill="black"/>
<path id="Vector_17" opacity="0.1" d="M1009.25 668.993H818.48L820.701 665.739V664.657H1009.25" fill="black"/>
<path id="Vector_18" opacity="0.1" d="M1009.25 650.576H820.701V646.24H1009.25" fill="black"/>
<path id="Vector_19" opacity="0.1" d="M1009.25 632.15H820.701V627.823H1007.97" fill="black"/>
<path id="Vector_20" opacity="0.1" d="M409.446 679.829C406.826 681.145 404.278 682.592 401.813 684.165H276.747V679.829H409.446Z" fill="black"/>
<path id="Vector_21" opacity="0.1" d="M693.894 679.829V684.165H495.415C492.949 682.592 490.401 681.145 487.781 679.829H693.894Z" fill="black"/>
<path id="Vector_22" opacity="0.1" d="M388.1 695.001C386.663 696.401 385.279 697.846 383.949 699.337H276.747V695.001H388.1Z" fill="black"/>
<path id="Vector_23" opacity="0.1" d="M693.894 695.001V699.337H513.278C511.942 697.84 510.558 696.394 509.128 695.001H693.894Z" fill="black"/>
<path id="Vector_24" opacity="0.1" d="M375.751 710.164C374.81 711.585 373.982 713.024 373.172 714.5H276.747V710.164H375.751Z" fill="black"/>
<path id="Vector_25" opacity="0.1" d="M693.894 710.164V714.5H524.055C523.246 713.024 522.38 711.585 521.476 710.164H693.894Z" fill="black"/>
<path id="Vector_26" opacity="0.1" d="M368.165 725.336C367.629 726.766 367.13 728.205 366.678 729.672H343.487V725.336H368.165Z" fill="black"/>
<path id="Vector_27" opacity="0.1" d="M693.894 725.336V729.672H530.549C530.098 728.205 529.608 726.766 529.062 725.336H693.894Z" fill="black"/>
<path id="Vector_28" opacity="0.1" d="M364.09 740.508C363.836 741.938 363.638 743.377 363.478 744.844H343.487V740.508H364.09Z" fill="black"/>
<path id="Vector_29" opacity="0.1" d="M693.894 740.508V744.844H533.74C533.58 743.377 533.382 741.938 533.128 740.508H693.894Z" fill="black"/>
<g id="Group" opacity="0.1">
<path id="Vector_30" opacity="0.1" d="M292.098 615.997C292.709 620.36 289.519 622.606 284.305 622.368C289.086 622.111 291.683 619.434 290.309 614.667C290.291 614.676 290.987 615.217 292.098 615.997Z" fill="black"/>
<path id="Vector_31" opacity="0.1" d="M312.371 649.347L314.658 650.833C314.448 651.057 314.177 651.219 313.877 651.3L312.286 650.264L312.371 649.347Z" fill="black"/>
<path id="Vector_32" opacity="0.1" d="M247.701 637.146C247.701 637.146 255.231 664.492 258.732 668.397C262.017 672.064 257.838 700.061 257.292 703.664L255.73 704.049C255.73 704.049 260.746 672.312 257.236 668.406C253.725 664.501 247.701 637.146 247.701 637.146Z" fill="black"/>
<path id="Vector_33" opacity="0.1" d="M277.274 702.087C279.373 703.792 295.326 704.067 304.823 704.077C295.618 704.077 277.98 703.875 275.777 702.087C274.897 701.567 273.878 701.315 272.85 701.363C274.883 701.253 276.521 701.473 277.274 702.087Z" fill="black"/>
</g>
<path id="Vector_34" opacity="0.1" d="M257.97 653.253L239.419 648.862L240.934 640.803L248.944 639.584L259.476 642.994L257.97 653.253Z" fill="black"/>
<path id="Vector_35" d="M257.97 652.767L239.419 648.367L240.934 640.308L248.944 639.089L259.476 642.509L257.97 652.767Z" fill="#E2E8F0"/>
<g id="wheel1">
<path id="Vector_36" d="M448.609 812.554C481.783 812.554 508.676 786.36 508.676 754.048C508.676 721.736 481.783 695.542 448.609 695.542C415.435 695.542 388.542 721.736 388.542 754.048C388.542 786.36 415.435 812.554 448.609 812.554Z" fill="#192534"/>
<path id="Vector_37" d="M448.609 786.555C467.041 786.555 481.984 772.001 481.984 754.048C481.984 736.094 467.041 721.54 448.609 721.54C430.177 721.54 415.234 736.094 415.234 754.048C415.234 772.001 430.177 786.555 448.609 786.555Z" fill="white"/>
<path id="Vector_38" d="M448.054 762.179C452.971 762.179 456.957 758.297 456.957 753.507C456.957 748.717 452.971 744.835 448.054 744.835C443.136 744.835 439.15 748.717 439.15 753.507C439.15 758.297 443.136 762.179 448.054 762.179Z" fill="#1A2246"/>
<g id="Group 1">
<line id="Line 1" x1="448.5" y1="721.665" x2="448.5" y2="786.665" stroke="black"/>
<line id="Line 2" x1="423.335" y1="731.294" x2="473.335" y2="776.294" stroke="black"/>
<line id="Line 3" x1="474.31" y1="734.058" x2="422.31" y2="775.058" stroke="black"/>
</g>
</g>
<g id="wheel2">
<path id="Vector_39" d="M888.006 812.554C921.18 812.554 948.073 786.36 948.073 754.048C948.073 721.736 921.18 695.542 888.006 695.542C854.832 695.542 827.939 721.736 827.939 754.048C827.939 786.36 854.832 812.554 888.006 812.554Z" fill="#192534"/>
<path id="Vector_40" d="M888.006 786.555C906.438 786.555 921.381 772.001 921.381 754.048C921.381 736.094 906.438 721.54 888.006 721.54C869.574 721.54 854.631 736.094 854.631 754.048C854.631 772.001 869.574 786.555 888.006 786.555Z" fill="white"/>
<path id="Vector_41" d="M888.561 762.179C893.479 762.179 897.465 758.297 897.465 753.507C897.465 748.717 893.479 744.835 888.561 744.835C883.644 744.835 879.658 748.717 879.658 753.507C879.658 758.297 883.644 762.179 888.561 762.179Z" fill="#1A2246"/>
<g id="Group 2">
<line id="Line 1_2" x1="888.5" y1="721.665" x2="888.5" y2="786.665" stroke="black"/>
<line id="Line 2_2" x1="863.335" y1="731.294" x2="913.335" y2="776.294" stroke="black"/>
<line id="Line 3_2" x1="914.31" y1="734.058" x2="862.31" y2="775.058" stroke="black"/>
</g>
</g>
<path id="Vector_42" d="M265.004 755.317L265.201 743.083L239.196 742.665L239 754.899L265.004 755.317Z" fill="#C5C5C5"/>
</g>
<g id="undraw_street_food_hm5i 1">
<g id="Group_2">
<path id="Vector_43" d="M1289.71 362.648L1248.35 321.287C1247.53 320.463 1246.41 320 1245.24 320H1186.76C1185.59 320 1184.47 320.463 1183.65 321.287L1142.29 362.648C1141.46 363.472 1141 364.59 1141 365.755V424.245C1141 425.41 1141.46 426.528 1142.29 427.352L1183.65 468.713C1184.47 469.537 1185.59 470 1186.76 470H1245.24C1246.41 470 1247.53 469.537 1248.35 468.713L1289.71 427.352C1290.54 426.528 1291 425.41 1291 424.245V365.755C1291 364.59 1290.54 363.472 1289.71 362.648V362.648Z" fill="#F5F5F5"/>
<path id="Vector_44" d="M1248.35 468.712L1289.71 427.352C1290.54 426.528 1291 425.41 1291 424.245V365.755C1291 364.59 1290.54 363.472 1289.71 362.648L1248.35 321.287C1247.53 320.463 1246.41 320 1245.24 320H1216V470H1245.24C1246.41 470 1247.53 469.537 1248.35 468.712Z" fill="#DEDCDE"/>
<path id="Vector_45" d="M1188.58 461.211H1243.42L1282.21 422.424V367.575L1243.42 328.789H1188.58L1149.79 367.575V422.424L1188.58 461.211Z" fill="#FF0032"/>
<path id="Vector_46" d="M1282.21 422.424V367.575L1243.42 328.789H1216V461.211H1243.42L1282.21 422.424Z" fill="#C8003C"/>
<g id="Group_3">
<path id="Vector_47" d="M1170.11 415.869H1166.58C1164.15 415.869 1162.18 413.901 1162.18 411.474C1162.18 409.047 1164.15 407.08 1166.58 407.08H1170.11C1172.23 407.08 1173.95 405.356 1173.95 403.237C1173.95 401.118 1172.23 399.394 1170.11 399.394C1163.14 399.394 1157.47 393.728 1157.47 386.762C1157.47 379.797 1163.14 374.131 1170.11 374.131H1173.64C1176.06 374.131 1178.03 376.098 1178.03 378.525C1178.03 380.952 1176.06 382.92 1173.64 382.92H1170.11C1167.99 382.92 1166.26 384.643 1166.26 386.762C1166.26 388.882 1167.99 390.605 1170.11 390.605C1177.07 390.605 1182.74 396.272 1182.74 403.237C1182.74 410.203 1177.07 415.869 1170.11 415.869Z" fill="#F5F5F5"/>
<path id="Vector_48" d="M1206.59 374.131H1187.76C1185.33 374.131 1183.36 376.098 1183.36 378.525C1183.36 380.952 1185.33 382.92 1187.76 382.92H1192.78V411.475C1192.78 413.902 1194.74 415.869 1197.17 415.869C1199.6 415.869 1201.57 413.902 1201.57 411.475V382.92H1206.59C1209.01 382.92 1210.98 380.952 1210.98 378.525C1210.98 376.098 1209.01 374.131 1206.59 374.131V374.131Z" fill="#F5F5F5"/>
<path id="Vector_49" d="M1227.76 374.131C1220.15 374.131 1213.96 380.323 1213.96 387.935V402.065C1213.96 409.677 1220.15 415.869 1227.77 415.869C1235.38 415.869 1241.58 409.677 1241.58 402.065V387.935C1241.58 380.323 1235.38 374.131 1227.76 374.131V374.131ZM1232.79 402.065C1232.79 404.83 1230.54 407.08 1227.76 407.08C1225 407.08 1222.75 404.83 1222.75 402.065V387.935C1222.75 385.169 1225 382.92 1227.77 382.92C1230.54 382.92 1232.79 385.169 1232.79 387.935V402.065Z" fill="#F5F5F5"/>
</g>
<path id="Vector_50" d="M1260.72 374.131H1253.66C1251.23 374.131 1249.26 376.098 1249.26 378.525V411.475C1249.26 413.902 1251.23 415.869 1253.66 415.869C1256.08 415.869 1258.05 413.902 1258.05 411.475V401.748H1260.72C1268.33 401.748 1274.53 395.554 1274.53 387.94C1274.53 380.326 1268.33 374.131 1260.72 374.131ZM1260.72 392.959H1258.05V382.92H1260.72C1263.48 382.92 1265.74 385.171 1265.74 387.939C1265.74 390.707 1263.48 392.959 1260.72 392.959Z" fill="#DEDCDE"/>
<path id="Vector_51" d="M1227.77 415.869C1235.38 415.869 1241.58 409.676 1241.58 402.065V387.935C1241.58 380.323 1235.38 374.131 1227.76 374.131C1222.79 374.131 1218.43 376.77 1216 380.72V409.279C1218.43 413.229 1222.8 415.869 1227.77 415.869V415.869ZM1222.75 387.935C1222.75 385.169 1225 382.92 1227.77 382.92C1230.54 382.92 1232.79 385.169 1232.79 387.935V402.065C1232.79 404.83 1230.54 407.08 1227.76 407.08C1225 407.08 1222.75 404.83 1222.75 402.065V387.935Z" fill="#DEDCDE"/>
</g>
</g>
</g>
</svg>
