<svg width="30" height="20" viewBox="0 0 55 45" fill="none" xmlns="http://www.w3.org/2000/svg">
<g id="twitter">
<path id="Vector" d="M54.5761 6.54999C54.5761 6.54999 49.9961 11.68 49.1162 12.01C46.6963 38.34 30.2563 44.32 17.0561 44.32C7.56637 44.32 -0.253937 41.23 0.00631343 40.38C14.0864 40.71 15.2861 34.9301 15.2861 34.9301C7.10592 33.7201 5.46627 28.38 5.46627 28.38C6.1998 28.7665 7.05008 28.8691 7.85446 28.668C8.65884 28.4669 9.36082 27.9762 9.82614 27.29C0.996058 24.99 2.19625 16.37 2.19625 16.37C3.76937 17.508 5.60773 18.2241 7.5361 18.45C6.5561 17.25 -1.70367 7.35 3.26608 2.22C3.55608 3 12.1562 14.71 26.5263 13.86C26.1854 12.1883 26.219 10.4617 26.6247 8.80453C27.0304 7.14733 27.7981 5.60059 28.8728 4.27542C29.9474 2.95025 31.3022 1.87956 32.8399 1.14032C34.3776 0.401084 36.06 0.0116669 37.7661 0C45.4062 0 47.0464 4.37 47.0464 4.37L52.5064 1.09C52.396 1.09 51.8462 6.54998 49.1162 7.63998L54.5761 6.54999Z" fill="white"/>
</g>
</svg>
