<svg width="100" height="100" viewBox="0 0 100 100" fill="none" xmlns="http://www.w3.org/2000/svg">
<g id="twitter">
<path id="Vector" d="M70.2311 36.3417L75.2888 35.3302C73.7326 37.141 72.0419 38.8317 70.2311 40.3879V40.3879C70.1556 41.3981 70.1556 42.4125 70.2311 43.4226C60.5202 85.0986 24.7112 66.6883 24.7112 66.6883C37.7602 66.9918 38.8729 61.6306 38.8729 61.6306C31.2862 60.5178 29.7689 55.5612 29.7689 55.5612C30.4496 55.9203 31.2388 56.0156 31.9854 55.829C32.732 55.6423 33.3835 55.1868 33.8151 54.5497C31.5893 54.0443 29.6312 52.7286 28.3223 50.8586C27.0133 48.9887 26.4472 46.6985 26.7342 44.4341C28.1946 45.4885 29.9013 46.1503 31.6908 46.3561C30.7804 45.2434 23.0927 36.0382 27.7458 31.2839C27.7458 31.2839 33.4105 41.3995 48.2804 42.3099L49.2919 42.1076C49.1199 41.379 49.0518 40.6298 49.0895 39.8821C49.0896 37.0652 50.2086 34.3636 52.2005 32.3717C54.1924 30.3798 56.8939 29.2608 59.7109 29.2608V29.2608C66.7917 29.2608 68.3091 33.307 68.3091 33.307L73.3668 30.2724C73.2657 30.2724 72.76 35.3302 70.2311 36.3417Z" fill="white"/>
</g>
</svg>
